# xmcd
#
# Track frame offsets: 
#        150
#        30149
#        43735
#        60855
#        91298
#        101898
#        126517
#        144699
#        165074
#        168599
#        186741
#        214298
#        234595
#        251747
#        270046
#
# Disc length: 3782 seconds
#
# Revision: 2
# Processed by: cddbd v1.5.2PL0 Copyright (c) Steve Scherf et al.
# Submitted via: ExactAudioCopy v1.3
#
DISCID=ce0ec40f
DTITLE=Ramases - Space Hymns
DYEAR=1971
DGENRE=Psychedelic Rock
TTITLE0=Life Child
TTITLE1=Oh Mister
TTITLE2=And The Whole World
TTITLE3=Quasar One
TTITLE4=You`re The Only One
TTITLE5=Earth-People
TTITLE6=Molecular Delusions
TTITLE7=Balloon
TTITLE8=Dying Swan Year 2000
TTITLE9=Jesus
TTITLE10=Journey To The Inside
TTITLE11=Balloon (single a-side, alternate mix)
TTITLE12=Muddy Water (single b-side)
TTITLE13=Jesus Come Back (single a-side)
TTITLE14=Hello Mister (single b-side)
EXTD=YEAR: 1971
EXTT0=
EXTT1=
EXTT2=
EXTT3=
EXTT4=
EXTT5=
EXTT6=
EXTT7=
EXTT8=
EXTT9=
EXTT10=
EXTT11=
EXTT12=
EXTT13=
EXTT14=
PLAYORDER=
